<svg preserveAspectRatio="none" width="100%" height="100%" overflow="visible" style="display: block;" viewBox="0 0 91.117 55.3368" fill="none" xmlns="http://www.w3.org/2000/svg">
<path id="Rectangle 89" d="M7.0293 0.999967L34.0059 1.1318C35.3865 1.13854 36.7229 1.62083 37.7891 2.49801L38 2.67184C39.4319 3.85005 41.2287 4.49411 43.083 4.49411H48.8486C50.7423 4.49409 52.572 3.80984 54.001 2.56735C55.0585 1.6478 56.4111 1.13783 57.8125 1.13083L84.0869 1.00094C87.4122 0.984441 90.1172 3.6756 90.1172 7.00094V48.3369C90.1171 51.6505 87.4308 54.3368 84.1172 54.3369H7C3.68633 54.3369 1.00005 51.6505 1 48.3369V6.99997L1.00781 6.6904C1.16947 3.50943 3.80804 0.984261 7.0293 0.999967Z" fill="var(--fill-0, #F0F0F0)" stroke="var(--stroke-0, #F0F0F0)" stroke-width="2"/>
</svg>
