<svg preserveAspectRatio="none" width="100%" height="100%" overflow="visible" style="display: block;" viewBox="0 0 43.3502 41.3273" fill="none" xmlns="http://www.w3.org/2000/svg">
<path id="Star 1" d="M20.724 0.690983C21.0234 -0.230327 22.3268 -0.230328 22.6262 0.690983L27.0574 14.329C27.1913 14.741 27.5752 15.02 28.0085 15.02L42.3483 15.02C43.317 15.02 43.7198 16.2596 42.9361 16.829L31.3349 25.2577C30.9844 25.5123 30.8378 25.9637 30.9716 26.3757L35.4029 40.0137C35.7022 40.935 34.6478 41.7012 33.8641 41.1318L22.2629 32.703C21.9124 32.4484 21.4378 32.4484 21.0873 32.703L9.48616 41.1318C8.70244 41.7012 7.64796 40.935 7.94731 40.0137L12.3786 26.3757C12.5124 25.9637 12.3658 25.5123 12.0153 25.2577L0.414132 16.829C-0.369582 16.2596 0.0331928 15.02 1.00192 15.02L15.3417 15.02C15.775 15.02 16.1589 14.741 16.2928 14.329L20.724 0.690983Z" fill="var(--fill-0, #2B2B2B)"/>
</svg>
