<svg preserveAspectRatio="none" width="100%" height="100%" overflow="visible" style="display: block;" viewBox="0 0 74.6932 14.9386" fill="none" xmlns="http://www.w3.org/2000/svg">
<g id="Frame 64">
<path id="Star 1" d="M6.99379 1.46353C7.14346 1.00287 7.79517 1.00287 7.94484 1.46353L9.03402 4.81568C9.10096 5.02169 9.29294 5.16117 9.50955 5.16117H13.0342C13.5186 5.16117 13.72 5.78098 13.3281 6.06568L10.4766 8.13742C10.3014 8.26474 10.228 8.49043 10.295 8.69644L11.3841 12.0486C11.5338 12.5092 11.0066 12.8923 10.6147 12.6076L7.76321 10.5359C7.58796 10.4085 7.35067 10.4085 7.17542 10.5359L4.32391 12.6076C3.93205 12.8923 3.40481 12.5092 3.55449 12.0486L4.64367 8.69644C4.71061 8.49043 4.63728 8.26474 4.46204 8.13742L1.61052 6.06568C1.21867 5.78098 1.42005 5.16117 1.90442 5.16117H5.42908C5.64569 5.16117 5.83767 5.02169 5.90461 4.81568L6.99379 1.46353Z" fill="var(--fill-0, #EB3232)"/>
<path id="Star 2" d="M21.9324 1.46353C22.0821 1.00287 22.7338 1.00287 22.8835 1.46353L23.9727 4.81568C24.0396 5.02169 24.2316 5.16117 24.4482 5.16117H27.9728C28.4572 5.16117 28.6586 5.78098 28.2667 6.06568L25.4152 8.13742C25.24 8.26474 25.1667 8.49043 25.2336 8.69644L26.3228 12.0486C26.4724 12.5092 25.9452 12.8923 25.5534 12.6076L22.7018 10.5359C22.5266 10.4085 22.2893 10.4085 22.1141 10.5359L19.2625 12.6076C18.8707 12.8923 18.3434 12.5092 18.4931 12.0486L19.5823 8.69644C19.6492 8.49043 19.5759 8.26474 19.4007 8.13742L16.5492 6.06568C16.1573 5.78098 16.3587 5.16117 16.843 5.16117H20.3677C20.5843 5.16117 20.7763 5.02169 20.8432 4.81568L21.9324 1.46353Z" fill="var(--fill-0, #EB3232)"/>
<path id="Star 3" d="M36.871 1.46353C37.0207 1.00287 37.6724 1.00287 37.8221 1.46353L38.9113 4.81568C38.9782 5.02169 39.1702 5.16117 39.3868 5.16117H42.9115C43.3958 5.16117 43.5972 5.78098 43.2054 6.06568L40.3539 8.13742C40.1786 8.26474 40.1053 8.49043 40.1722 8.69644L41.2614 12.0486C41.4111 12.5092 40.8838 12.8923 40.492 12.6076L37.6405 10.5359C37.4652 10.4085 37.2279 10.4085 37.0527 10.5359L34.2012 12.6076C33.8093 12.8923 33.2821 12.5092 33.4318 12.0486L34.5209 8.69644C34.5879 8.49043 34.5145 8.26474 34.3393 8.13742L31.4878 6.06568C31.0959 5.78098 31.2973 5.16117 31.7817 5.16117H35.3063C35.523 5.16117 35.7149 5.02169 35.7819 4.81568L36.871 1.46353Z" fill="var(--fill-0, #EB3232)"/>
<path id="Star 4" d="M51.8097 1.46353C51.9594 1.00287 52.6111 1.00287 52.7607 1.46353L53.8499 4.81568C53.9169 5.02169 54.1088 5.16117 54.3254 5.16117H57.8501C58.3345 5.16117 58.5359 5.78098 58.144 6.06568L55.2925 8.13742C55.1172 8.26474 55.0439 8.49043 55.1109 8.69644L56.2 12.0486C56.3497 12.5092 55.8225 12.8923 55.4306 12.6076L52.5791 10.5359C52.4039 10.4085 52.1666 10.4085 51.9913 10.5359L49.1398 12.6076C48.7479 12.8923 48.2207 12.5092 48.3704 12.0486L49.4596 8.69644C49.5265 8.49043 49.4532 8.26474 49.2779 8.13742L46.4264 6.06568C46.0346 5.78098 46.2359 5.16117 46.7203 5.16117H50.245C50.4616 5.16117 50.6536 5.02169 50.7205 4.81568L51.8097 1.46353Z" fill="var(--fill-0, #EB3232)"/>
<path id="Star 5" d="M66.7483 1.46353C66.898 1.00287 67.5497 1.00287 67.6994 1.46353L68.7885 4.81568C68.8555 5.02169 69.0475 5.16117 69.2641 5.16117H72.7887C73.2731 5.16117 73.4745 5.78098 73.0826 6.06568L70.2311 8.13742C70.0559 8.26474 69.9825 8.49043 70.0495 8.69644L71.1387 12.0486C71.2883 12.5092 70.7611 12.8923 70.3692 12.6076L67.5177 10.5359C67.3425 10.4085 67.1052 10.4085 66.9299 10.5359L64.0784 12.6076C63.6866 12.8923 63.1593 12.5092 63.309 12.0486L64.3982 8.69644C64.4651 8.49043 64.3918 8.26474 64.2166 8.13742L61.365 6.06568C60.9732 5.78098 61.1746 5.16117 61.6589 5.16117H65.1836C65.4002 5.16117 65.5922 5.02169 65.6591 4.81568L66.7483 1.46353Z" fill="var(--fill-0, #EB3232)"/>
</g>
</svg>
