<svg preserveAspectRatio="none" width="100%" height="100%" overflow="visible" style="display: block;" viewBox="0 0 92.2246 18.4449" fill="none" xmlns="http://www.w3.org/2000/svg">
<g id="Frame 64">
<path id="Star 1" d="M8.74693 1.46352C8.89661 1.00287 9.54831 1.00287 9.69799 1.46353L11.1808 6.02707C11.2477 6.23308 11.4397 6.37256 11.6563 6.37256H16.4547C16.9391 6.37256 17.1404 6.99237 16.7486 7.27707L12.8666 10.0975C12.6914 10.2248 12.618 10.4505 12.685 10.6565L14.1678 15.2201C14.3174 15.6807 13.7902 16.0638 13.3983 15.7791L9.51635 12.9587C9.34111 12.8313 9.10381 12.8313 8.92857 12.9587L5.04658 15.7791C4.65473 16.0638 4.12749 15.6807 4.27716 15.2201L5.75995 10.6565C5.82689 10.4505 5.75356 10.2248 5.57831 10.0975L1.69633 7.27707C1.30447 6.99237 1.50586 6.37256 1.99022 6.37256H6.78862C7.00523 6.37256 7.19721 6.23308 7.26415 6.02707L8.74693 1.46352Z" fill="var(--fill-0, #2B2B2B)"/>
<path id="Star 2" d="M27.1919 1.46352C27.3415 1.00287 27.9932 1.00287 28.1429 1.46353L29.6257 6.02707C29.6926 6.23308 29.8846 6.37256 30.1012 6.37256H34.8996C35.384 6.37256 35.5854 6.99237 35.1935 7.27707L31.3115 10.0975C31.1363 10.2248 31.063 10.4505 31.1299 10.6565L32.6127 15.2201C32.7624 15.6807 32.2351 16.0638 31.8433 15.7791L27.9613 12.9587C27.786 12.8313 27.5487 12.8313 27.3735 12.9587L23.4915 15.7791C23.0996 16.0638 22.5724 15.6807 22.7221 15.2201L24.2049 10.6565C24.2718 10.4505 24.1985 10.2248 24.0232 10.0975L20.1412 7.27707C19.7494 6.99237 19.9508 6.37256 20.4351 6.37256H25.2335C25.4502 6.37256 25.6421 6.23308 25.7091 6.02707L27.1919 1.46352Z" fill="var(--fill-0, #2B2B2B)"/>
<path id="Star 3" d="M45.6368 1.46352C45.7865 1.00287 46.4382 1.00287 46.5878 1.46353L48.0706 6.02707C48.1376 6.23308 48.3295 6.37256 48.5461 6.37256H53.3445C53.8289 6.37256 54.0303 6.99237 53.6384 7.27707L49.7565 10.0975C49.5812 10.2248 49.5079 10.4505 49.5748 10.6565L51.0576 15.2201C51.2073 15.6807 50.68 16.0638 50.2882 15.7791L46.4062 12.9587C46.231 12.8313 45.9937 12.8313 45.8184 12.9587L41.9364 15.7791C41.5446 16.0638 41.0173 15.6807 41.167 15.2201L42.6498 10.6565C42.7167 10.4505 42.6434 10.2248 42.4682 10.0975L38.5862 7.27707C38.1943 6.99237 38.3957 6.37256 38.8801 6.37256H43.6785C43.8951 6.37256 44.0871 6.23308 44.154 6.02707L45.6368 1.46352Z" fill="var(--fill-0, #2B2B2B)"/>
<path id="Star 4" d="M64.0817 1.46352C64.2314 1.00287 64.8831 1.00287 65.0328 1.46353L66.5155 6.02707C66.5825 6.23308 66.7745 6.37256 66.9911 6.37256H71.7895C72.2738 6.37256 72.4752 6.99237 72.0834 7.27707L68.2014 10.0975C68.0261 10.2248 67.9528 10.4505 68.0197 10.6565L69.5025 15.2201C69.6522 15.6807 69.125 16.0638 68.7331 15.7791L64.8511 12.9587C64.6759 12.8313 64.4386 12.8313 64.2633 12.9587L60.3813 15.7791C59.9895 16.0638 59.4622 15.6807 59.6119 15.2201L61.0947 10.6565C61.1616 10.4505 61.0883 10.2248 60.9131 10.0975L57.0311 7.27707C56.6392 6.99237 56.8406 6.37256 57.325 6.37256H62.1234C62.34 6.37256 62.532 6.23308 62.5989 6.02707L64.0817 1.46352Z" fill="var(--fill-0, #2B2B2B)"/>
<path id="Star 5" d="M82.5266 1.46352C82.6763 1.00287 83.328 1.00287 83.4777 1.46353L84.9605 6.02707C85.0274 6.23308 85.2194 6.37256 85.436 6.37256H90.2344C90.7187 6.37256 90.9201 6.99237 90.5283 7.27707L86.6463 10.0975C86.4711 10.2248 86.3977 10.4505 86.4647 10.6565L87.9474 15.2201C88.0971 15.6807 87.5699 16.0638 87.178 15.7791L83.296 12.9587C83.1208 12.8313 82.8835 12.8313 82.7083 12.9587L78.8263 15.7791C78.4344 16.0638 77.9072 15.6807 78.0568 15.2201L79.5396 10.6565C79.6066 10.4505 79.5332 10.2248 79.358 10.0975L75.476 7.27707C75.0842 6.99237 75.2855 6.37256 75.7699 6.37256H80.5683C80.7849 6.37256 80.9769 6.23308 81.0438 6.02707L82.5266 1.46352Z" fill="var(--fill-0, #2B2B2B)"/>
</g>
</svg>
